<svg id="Capa_1" enable-background="new 0 0 510 510" height="512" viewBox="0 0 510 510" width="512" xmlns="http://www.w3.org/2000/svg"><path d="m422.81 217.5v-202.5c0-8.284-6.716-15-15-15h-392.81c-8.284 0-15 6.716-15 15v402.25c0 13.31 10.72 24.16 23.98 24.36 13.17-.28 23.86-11.15 23.86-24.36v-148.15c0-.21 0-.42.01-.63 1.2-28.58 24.56-50.97 53.18-50.97zm-144.8-141.87c-5.27-6.4-4.35-15.85 2.05-21.12 6.39-5.26 15.85-4.34 21.11 2.05l22.49 27.32 22.48-27.32c5.26-6.39 14.72-7.31 21.11-2.05 6.4 5.27 7.32 14.72 2.06 21.12l-26.22 31.86 26.22 31.87c5.26 6.4 4.34 15.85-2.06 21.11-6.393 5.271-15.848 4.346-21.11-2.05l-22.48-27.32-22.49 27.32c-5.247 6.399-14.722 7.316-21.11 2.05-6.4-5.26-7.32-14.71-2.05-21.11l26.22-31.87zm-127.13 24.53c0-27.05 22.01-49.07 49.07-49.07 27.05 0 49.06 22.02 49.06 49.07v48.73c0 8.29-6.71 15-15 15-8.28 0-15-6.71-15-15v-11.64h-38.13v11.64c0 8.29-6.72 15-15 15s-15-6.71-15-15zm-64.88 63.73c-8.28 0-15-6.71-15-15v-67.8h-19.06c-8.29 0-15-6.71-15-15 0-8.28 6.71-15 15-15h68.13c8.29 0 15 6.72 15 15 0 8.29-6.71 15-15 15h-19.07v67.8c0 8.29-6.71 15-15 15z"/><path d="m101.13 247.5h-.1c-12.4 0-22.53 9.62-23.19 21.95v147.8c0 8.74-2.1 17.02-5.82 24.37h52.34v-170.88c0-12.82-10.42-23.24-23.23-23.24z"/><path d="m219.01 100.16c0-10.51-8.55-19.07-19.06-19.07-10.52 0-19.07 8.56-19.07 19.07v7.09h38.13z"/><path d="m486.77 247.5c-39.839 0-306.099 0-337.75 0 3.42 7.02 5.34 14.91 5.34 23.24v224.26c0 8.284 6.716 15 15 15h325.64c8.284 0 15-6.716 15-15v-224.26c0-12.82-10.42-23.24-23.23-23.24zm-270.2 76.88h116.24c8.29 0 15 6.71 15 15 0 8.28-6.71 15-15 15-26.294 0-91.373 0-116.24 0-8.28 0-15-6.72-15-15 0-8.29 6.72-15 15-15zm116.97 110.98c-.728.031 6.357.02-116.97.02-8.28 0-15-6.72-15-15 0-8.29 6.72-15 15-15h116.24c8.303 0 15 6.723 15 15 0 8.069-6.369 14.613-14.27 14.98zm125.65.02h-57c-8.29 0-15-6.72-15-15 0-8.186 6.617-15 15-15h57c8.28 0 15 6.71 15 15 0 8.28-6.72 15-15 15zm0-81c-6.366 0-50.019 0-57 0-8.29 0-15-6.72-15-15 0-8.29 6.71-15 15-15h57c8.28 0 15 6.71 15 15 0 8.28-6.72 15-15 15z"/></svg>